<svg xmlns="http://www.w3.org/2000/svg" xmlns:xlink="http://www.w3.org/1999/xlink" viewBox="0 0 377.1 484.89"><defs><style>.cls-1{fill:none;}.cls-2{isolation:isolate;}.cls-3{clip-path:url(#clip-path);}.cls-4{fill:url(#linear-gradient);}.cls-5,.cls-6{opacity:0.5;}.cls-5,.cls-55,.cls-56,.cls-6,.cls-60,.cls-61{mix-blend-mode:color-dodge;}.cls-5{fill:url(#radial-gradient);}.cls-6{fill:url(#radial-gradient-2);}.cls-7,.cls-8{opacity:0.2;}.cls-7{fill:url(#linear-gradient-2);}.cls-9{opacity:0;}.cls-10{opacity:0.09;}.cls-11{opacity:0.18;}.cls-12{opacity:0.27;}.cls-13{opacity:0.36;}.cls-14{opacity:0.45;}.cls-15{opacity:0.55;}.cls-16{opacity:0.64;}.cls-17{opacity:0.73;}.cls-18{opacity:0.82;}.cls-19{opacity:0.91;}.cls-20{fill:url(#linear-gradient-3);}.cls-21{fill:url(#linear-gradient-4);}.cls-22{opacity:0.82;fill:url(#New_Gradient_Swatch_1);}.cls-22,.cls-26{mix-blend-mode:multiply;}.cls-23,.cls-28{opacity:0.6;}.cls-23,.cls-28,.cls-29{mix-blend-mode:screen;}.cls-23{fill:url(#radial-gradient-3);}.cls-24{fill:url(#New_Gradient_Swatch_copy_12);}.cls-25{fill:url(#linear-gradient-5);}.cls-26{fill:#bcbec0;}.cls-27{fill:url(#linear-gradient-6);}.cls-28{fill:url(#radial-gradient-4);}.cls-29{fill:url(#radial-gradient-5);}.cls-30{fill:url(#linear-gradient-7);}.cls-31{fill:url(#linear-gradient-8);}.cls-32{fill:url(#linear-gradient-9);}.cls-33{fill:url(#linear-gradient-10);}.cls-34{fill:url(#linear-gradient-11);}.cls-35{fill:url(#linear-gradient-12);}.cls-36{fill:url(#linear-gradient-13);}.cls-37{fill:url(#linear-gradient-14);}.cls-38{fill:url(#linear-gradient-15);}.cls-39{fill:url(#linear-gradient-16);}.cls-40{fill:url(#linear-gradient-17);}.cls-41{fill:url(#linear-gradient-18);}.cls-42{fill:url(#linear-gradient-19);}.cls-43{fill:url(#linear-gradient-20);}.cls-44{fill:url(#linear-gradient-21);}.cls-45{fill:url(#linear-gradient-22);}.cls-46{fill:url(#linear-gradient-23);}.cls-47{fill:url(#linear-gradient-24);}.cls-48{fill:url(#linear-gradient-25);}.cls-49{fill:url(#linear-gradient-26);}.cls-50{fill:url(#linear-gradient-27);}.cls-51{fill:#a7a9ac;}.cls-52{fill:url(#linear-gradient-28);}.cls-53{fill:url(#linear-gradient-29);}.cls-54{fill:url(#linear-gradient-30);}.cls-55{fill:url(#Radial_Gradient_1);}.cls-56{fill:url(#Radial_Gradient_1-2);}.cls-57{fill:#fff;}.cls-58{fill:url(#linear-gradient-31);}.cls-59{fill:url(#linear-gradient-32);}.cls-60{fill:url(#radial-gradient-6);}.cls-61{fill:url(#Radial_Gradient_1-3);}</style><clipPath id="clip-path" transform="translate(24.1)"><path class="cls-1" d="M277.35,126.07V100.85a100.86,100.86,0,0,0-201.71,0v25.22H0V340.38a63,63,0,0,0,63,63H290a63,63,0,0,0,63-63V126.07ZM126.07,100.85a50.43,50.43,0,0,1,100.85,0v25.22H126.07Z"/></clipPath><linearGradient id="linear-gradient" x1="363.32" y1="339.42" x2="-1.55" y2="128.76" gradientUnits="userSpaceOnUse"><stop offset="0.02" stop-color="#45108a"/><stop offset="0.29" stop-color="#3d065f"/><stop offset="1" stop-color="#12054e"/><stop offset="1" stop-color="#10054d"/></linearGradient><radialGradient id="radial-gradient" cx="-2700.31" cy="-800.98" r="192.05" gradientTransform="matrix(0, 0.91, -0.53, 0, -287.11, 2813.24)" gradientUnits="userSpaceOnUse"><stop offset="0" stop-color="#4f18ad"/><stop offset="0.29" stop-color="#3a127f"/><stop offset="0.94" stop-color="#05010a"/><stop offset="1"/></radialGradient><radialGradient id="radial-gradient-2" cx="52.59" cy="177.8" r="144.9" gradientTransform="translate(163.75 76.67) scale(0.96 0.98)" gradientUnits="userSpaceOnUse"><stop offset="0" stop-color="#fa45c1"/><stop offset="0.21" stop-color="#cb389d"/><stop offset="0.67" stop-color="#571843"/><stop offset="1"/></radialGradient><linearGradient id="linear-gradient-2" x1="125.23" y1="355.13" x2="234.62" y2="355.13" gradientUnits="userSpaceOnUse"><stop offset="0.06" stop-color="#200041"/><stop offset="0.26" stop-color="#210243"/><stop offset="0.36" stop-color="#25084b"/><stop offset="0.43" stop-color="#2c1358"/><stop offset="0.47" stop-color="#311b61"/><stop offset="0.48" stop-color="#351f65"/><stop offset="0.5" stop-color="#422c73"/><stop offset="0.51" stop-color="#584188"/><stop offset="0.52" stop-color="#765fa7"/><stop offset="0.53" stop-color="#8770b8"/><stop offset="0.54" stop-color="#7e67ae"/><stop offset="0.56" stop-color="#5c468d"/><stop offset="0.59" stop-color="#442e75"/><stop offset="0.61" stop-color="#362066"/><stop offset="0.63" stop-color="#311b61"/><stop offset="0.67" stop-color="#2a1155"/><stop offset="0.75" stop-color="#230446"/><stop offset="0.81" stop-color="#200041"/><stop offset="1" stop-color="#200041"/></linearGradient><linearGradient id="linear-gradient-3" x1="125.23" y1="338.44" x2="234.62" y2="338.44" xlink:href="#linear-gradient-2"/><linearGradient id="linear-gradient-4" x1="154.5" y1="345.48" x2="204.09" y2="318.04" gradientUnits="userSpaceOnUse"><stop offset="0" stop-color="#311b61"/><stop offset="0.2" stop-color="#290f52"/><stop offset="0.49" stop-color="#200041"/><stop offset="1" stop-color="#0f001f"/></linearGradient><linearGradient id="New_Gradient_Swatch_1" x1="180.8" y1="332.51" x2="190.53" y2="316.19" gradientUnits="userSpaceOnUse"><stop offset="0" stop-color="#fff"/><stop offset="1"/></linearGradient><radialGradient id="radial-gradient-3" cx="181.12" cy="354.69" r="38.92" gradientUnits="userSpaceOnUse"><stop offset="0" stop-color="#af8afc"/><stop offset="1" stop-color="#10054d"/></radialGradient><linearGradient id="New_Gradient_Swatch_copy_12" x1="261.08" y1="364.74" x2="93.67" y2="133.09" xlink:href="#linear-gradient-4"/><linearGradient id="linear-gradient-5" x1="116.31" y1="156.17" x2="258.74" y2="370.34" gradientUnits="userSpaceOnUse"><stop offset="0.01" stop-color="#9f19ab"/><stop offset="0.43" stop-color="#5f27bd"/><stop offset="0.9" stop-color="#3d065f"/></linearGradient><linearGradient id="linear-gradient-6" x1="296.65" y1="369.78" x2="164.88" y2="159.23" xlink:href="#linear-gradient-2"/><radialGradient id="radial-gradient-4" cx="259.27" cy="249.87" r="22.43" xlink:href="#radial-gradient-3"/><radialGradient id="radial-gradient-5" cx="191.22" cy="281.27" r="140.19" gradientUnits="userSpaceOnUse"><stop offset="0" stop-color="#363885"/><stop offset="0.15" stop-color="#272860"/><stop offset="0.31" stop-color="#191a3d"/><stop offset="0.48" stop-color="#0e0f22"/><stop offset="0.65" stop-color="#06060f"/><stop offset="0.82" stop-color="#020204"/><stop offset="1"/></radialGradient><linearGradient id="linear-gradient-7" x1="239.62" y1="313.83" x2="286.28" y2="299.86" gradientUnits="userSpaceOnUse"><stop offset="0" stop-color="#1a103d"/><stop offset="0.27" stop-color="#251b4c"/><stop offset="0.78" stop-color="#403873"/><stop offset="1" stop-color="#4d4685"/></linearGradient><linearGradient id="linear-gradient-8" x1="28.84" y1="319.47" x2="361.94" y2="244.8" xlink:href="#linear-gradient-7"/><linearGradient id="linear-gradient-9" x1="203.29" y1="229.27" x2="192.85" y2="249.15" xlink:href="#linear-gradient-7"/><linearGradient id="linear-gradient-10" x1="243.06" y1="271.03" x2="266.11" y2="264.13" gradientUnits="userSpaceOnUse"><stop offset="0" stop-color="#1a103d"/><stop offset="0.33" stop-color="#241b4c"/><stop offset="0.97" stop-color="#3f3873"/><stop offset="1" stop-color="#413a75"/></linearGradient><linearGradient id="linear-gradient-11" x1="46.66" y1="274.18" x2="341.04" y2="208.2" xlink:href="#linear-gradient-10"/><linearGradient id="linear-gradient-12" x1="160.26" y1="174.36" x2="206.84" y2="253.41" gradientUnits="userSpaceOnUse"><stop offset="0" stop-color="#251c4d"/><stop offset="0.59" stop-color="#3c346d"/><stop offset="1" stop-color="#4d4685"/></linearGradient><linearGradient id="linear-gradient-13" x1="172.26" y1="216.09" x2="159.64" y2="238.02" gradientUnits="userSpaceOnUse"><stop offset="0" stop-color="#fff"/><stop offset="1" stop-color="#bcbcd6"/></linearGradient><linearGradient id="linear-gradient-14" x1="189.01" y1="225.73" x2="176.39" y2="247.66" xlink:href="#linear-gradient-13"/><linearGradient id="linear-gradient-15" x1="205.76" y1="235.37" x2="193.14" y2="257.3" xlink:href="#linear-gradient-13"/><linearGradient id="linear-gradient-16" x1="222.51" y1="245.01" x2="209.9" y2="266.94" xlink:href="#linear-gradient-13"/><linearGradient id="linear-gradient-17" x1="239.26" y1="254.65" x2="226.65" y2="276.58" xlink:href="#linear-gradient-13"/><linearGradient id="linear-gradient-18" x1="219.28" y1="243.97" x2="240.15" y2="237.73" gradientTransform="matrix(1, -0.18, 0, 1, 24.1, 33.06)" xlink:href="#linear-gradient-10"/><linearGradient id="linear-gradient-19" x1="23.81" y1="247.18" x2="315.62" y2="181.76" gradientTransform="matrix(1, -0.18, 0, 1, 24.1, 33.06)" xlink:href="#linear-gradient-10"/><linearGradient id="linear-gradient-20" x1="179.04" y1="190.42" x2="166.36" y2="214.6" gradientTransform="matrix(1, -0.18, 0, 1, 24.1, 33.06)" xlink:href="#linear-gradient-12"/><linearGradient id="linear-gradient-21" x1="162.84" y1="210.74" x2="175.93" y2="210.74" xlink:href="#linear-gradient-13"/><linearGradient id="linear-gradient-22" x1="179.56" y1="217.37" x2="192.65" y2="217.37" xlink:href="#linear-gradient-13"/><linearGradient id="linear-gradient-23" x1="196.29" y1="224" x2="209.38" y2="224" xlink:href="#linear-gradient-13"/><linearGradient id="linear-gradient-24" x1="213.01" y1="230.63" x2="226.1" y2="230.63" xlink:href="#linear-gradient-13"/><linearGradient id="linear-gradient-25" x1="229.74" y1="237.26" x2="242.83" y2="237.26" xlink:href="#linear-gradient-13"/><linearGradient id="linear-gradient-26" x1="152.95" y1="210.17" x2="174.21" y2="205.63" xlink:href="#linear-gradient-10"/><linearGradient id="linear-gradient-27" x1="128.52" y1="222.09" x2="153.14" y2="207.61" xlink:href="#linear-gradient-7"/><linearGradient id="linear-gradient-28" x1="116.7" y1="200.56" x2="118.31" y2="206.23" xlink:href="#linear-gradient-13"/><linearGradient id="linear-gradient-29" x1="116.7" y1="214.33" x2="118.31" y2="220" xlink:href="#linear-gradient-13"/><linearGradient id="linear-gradient-30" x1="126.52" y1="219.6" x2="128.13" y2="225.27" xlink:href="#linear-gradient-13"/><radialGradient id="Radial_Gradient_1" cx="230.63" cy="244.13" r="38.51" xlink:href="#New_Gradient_Swatch_1"/><radialGradient id="Radial_Gradient_1-2" cx="227.81" cy="219.9" r="35.11" xlink:href="#New_Gradient_Swatch_1"/><linearGradient id="linear-gradient-31" x1="118.54" y1="277.88" x2="216.48" y2="277.88" xlink:href="#linear-gradient-13"/><linearGradient id="linear-gradient-32" x1="118.54" y1="309.99" x2="216.48" y2="309.99" xlink:href="#linear-gradient-13"/><radialGradient id="radial-gradient-6" cx="-622.27" cy="-5933.64" r="27.35" gradientTransform="matrix(0.48, -0.2, 0.17, 0.41, 1527.31, 2598.65)" gradientUnits="userSpaceOnUse"><stop offset="0" stop-color="#7c1dc9"/><stop offset="0.03" stop-color="#741bbd"/><stop offset="0.16" stop-color="#56148b"/><stop offset="0.3" stop-color="#3b0e60"/><stop offset="0.43" stop-color="#26093e"/><stop offset="0.57" stop-color="#150523"/><stop offset="0.71" stop-color="#09020f"/><stop offset="0.85" stop-color="#020104"/><stop offset="1"/></radialGradient><radialGradient id="Radial_Gradient_1-3" cx="253.23" cy="307.92" r="35.95" xlink:href="#New_Gradient_Swatch_1"/></defs><g class="cls-2"><g id="Layer_2" data-name="Layer 2"><g id="Layer_1-2" data-name="Layer 1"><g class="cls-3"><path class="cls-4" d="M277.35,126.07V100.85a100.86,100.86,0,0,0-201.71,0v25.22H0V340.38a63,63,0,0,0,63,63H290a63,63,0,0,0,63-63V126.07ZM126.07,100.85a50.43,50.43,0,0,1,100.85,0v25.22H126.07Z" transform="translate(24.1)"/><ellipse class="cls-5" cx="140.16" cy="367.49" rx="102.47" ry="173.93" transform="translate(-228.44 345.72) rotate(-65.95)"/><ellipse class="cls-6" cx="214.2" cy="250.63" rx="139" ry="141.78"/><g id="Screen"><path class="cls-7" d="M224.78,336.52c0,1.47-1.07,3-3.16,4.22l-30.28,28.9c-3.83,2.21-9.63,2.46-12.94.54l-55.09-32a3.75,3.75,0,0,1-2.22-3.5,1.52,1.52,0,0,0,0,.23v4.16a3.85,3.85,0,0,0,2.24,3.19l55.09,32c3.31,1.92,9.11,1.68,12.94-.53l30.28-28.9c2.12-1.23,3.2-2.81,3.17-4.29C224.78,340.28,224.82,337.54,224.78,336.52Z" transform="translate(24.1)"/><g class="cls-8"><path class="cls-9" d="M184,373.74a15.92,15.92,0,0,1-7.94-1.92l-55.08-32a8.39,8.39,0,0,1-4.55-7.25c0-3.22,2-6.22,5.48-8.23l48.34-18.6a19.55,19.55,0,0,1,9.64-2.45,15.91,15.91,0,0,1,7.93,1.92l37,21.69a8.39,8.39,0,0,1,4.55,7.25c0,3.22-2,6.22-5.48,8.23l-30.28,28.9A19.52,19.52,0,0,1,184,373.74Z" transform="translate(24.1)"/><path class="cls-10" d="M122.14,324.71l48.34-18.59a19.12,19.12,0,0,1,9.59-2.39,18.44,18.44,0,0,1,4.18.54,15.4,15.4,0,0,1,3.67,1.48l35.75,20.95,1.07.63a7.68,7.68,0,0,1,4,7.21c-.16,2.92-2.36,6.18-5.53,8l-29.73,28.37a19.11,19.11,0,0,1-9.4,2.4,15.57,15.57,0,0,1-7.75-1.86l-55.08-32a8,8,0,0,1-4.34-6.92C116.88,329.5,118.8,326.64,122.14,324.71Z" transform="translate(24.1)"/><path class="cls-11" d="M122.35,325.08l48.34-18.6a18.74,18.74,0,0,1,9.55-2.31,17.51,17.51,0,0,1,4.14.6,17.89,17.89,0,0,1,3.63,1.52l35.55,20.83,1.06.64a7,7,0,0,1,3.37,7.17c-.29,2.61-2.72,6.13-5.57,7.77l-29.19,27.86a18.7,18.7,0,0,1-9.17,2.33,15.18,15.18,0,0,1-7.56-1.79l-55.08-32a7.52,7.52,0,0,1-4.13-6.58C117.32,329.64,119.15,326.93,122.35,325.08Z" transform="translate(24.1)"/><path class="cls-12" d="M122.56,325.44l48.34-18.59a18.23,18.23,0,0,1,9.5-2.25,17.07,17.07,0,0,1,4.11.66,20,20,0,0,1,3.58,1.57l35.36,20.71c.1.06,1,.58,1,.65,2.71,1.74,3.27,4.33,2.8,7.12-.39,2.31-3.1,6.09-5.63,7.55L193,370.19a18.24,18.24,0,0,1-8.94,2.28,14.72,14.72,0,0,1-7.37-1.74l-55.08-32a7.12,7.12,0,0,1-3.92-6.25C117.75,329.77,119.5,327.21,122.56,325.44Z" transform="translate(24.1)"/><path class="cls-13" d="M122.77,325.81l48.34-18.6a17.92,17.92,0,0,1,9.46-2.18,17,17,0,0,1,4.06.73,23.8,23.8,0,0,1,3.54,1.6L223.34,328c.13.08.93.56,1,.65,2.65,1.78,3.45,4.5,2.21,7.08,0,2.05-3.46,6.05-5.68,7.33l-28.09,26.81a17.83,17.83,0,0,1-8.71,2.22,14.24,14.24,0,0,1-7.17-1.68l-55.09-32a6.65,6.65,0,0,1-3.7-5.91C118.19,329.91,119.85,327.49,122.77,325.81Z" transform="translate(24.1)"/><path class="cls-14" d="M123,326.17l48.34-18.6a17.52,17.52,0,0,1,9.42-2.11,17.06,17.06,0,0,1,4,.79,28.87,28.87,0,0,1,3.5,1.65l35,20.48c.17.1.9.55,1,.66,2.58,1.8,3.17,4.54,1.62,7,0,1.75-3.82,6-5.72,7.1L192.6,369.47a17.42,17.42,0,0,1-8.47,2.16,13.9,13.9,0,0,1-7-1.63l-55.09-32a6.25,6.25,0,0,1-3.49-5.58C118.63,330.05,120.2,327.77,123,326.17Z" transform="translate(24.1)"/><path class="cls-15" d="M123.19,326.53l48.34-18.59a17.1,17.1,0,0,1,9.37-2.05,16.2,16.2,0,0,1,4,.86,36.74,36.74,0,0,1,3.45,1.68l34.77,20.38a10.49,10.49,0,0,1,1,.66,4.59,4.59,0,0,1,1,7c0,1.47-4.19,6-5.77,6.88l-27,25.76a17,17,0,0,1-8.24,2.11,13.52,13.52,0,0,1-6.8-1.57l-55.09-32A5.84,5.84,0,0,1,119,332.4C119.06,330.19,120.55,328.06,123.19,326.53Z" transform="translate(24.1)"/><path class="cls-16" d="M123.4,326.9l48.34-18.6a16.81,16.81,0,0,1,9.33-2,16.32,16.32,0,0,1,4,.92c.48.16,3,1.5,3.4,1.73L223,329.23a9.62,9.62,0,0,1,1,.66c2.47,1.85,2.62,4.64.45,7,0,1.17-4.55,5.91-5.82,6.64l-26.45,25.25a16.58,16.58,0,0,1-8,2.05,13.24,13.24,0,0,1-6.61-1.51l-55.09-32a5.4,5.4,0,0,1-3.07-4.91C119.5,330.33,120.9,328.34,123.4,326.9Z" transform="translate(24.1)"/><path class="cls-17" d="M123.61,327.26,172,308.67a16.36,16.36,0,0,1,9.29-1.92,16,16,0,0,1,3.9,1c.36.12,3.07,1.59,3.37,1.77l34.38,20.14a8.15,8.15,0,0,1,1,.67c2.4,1.88,2.34,4.68-.14,6.91,0,.88-4.92,5.87-5.87,6.42L192,368.37a16.15,16.15,0,0,1-7.78,2,12.65,12.65,0,0,1-6.42-1.46l-55.09-32a5,5,0,0,1-2.86-4.58C119.93,330.46,121.25,328.62,123.61,327.26Z" transform="translate(24.1)"/><path class="cls-18" d="M123.82,327.63,172.16,309a16,16,0,0,1,9.24-1.85,15.64,15.64,0,0,1,3.87,1.05c.24.09,3.12,1.7,3.32,1.81l34.18,20a7.44,7.44,0,0,1,1,.67c2.34,1.91,2.06,4.73-.72,6.88,0,.58-5.29,5.82-5.92,6.19L191.76,368a15.75,15.75,0,0,1-7.55,1.94,12.39,12.39,0,0,1-6.23-1.4l-55.09-32a4.53,4.53,0,0,1-2.64-4.24C120.37,330.6,121.6,328.91,123.82,327.63Z" transform="translate(24.1)"/><path class="cls-19" d="M124,328l48.34-18.6a15.67,15.67,0,0,1,9.2-1.78,15.33,15.33,0,0,1,3.83,1.12c.12,0,3.17,1.79,3.27,1.85l34,19.91a7.35,7.35,0,0,1,1,.68c2.28,1.93,1.78,4.77-1.31,6.83a80,80,0,0,1-6,6l-24.81,23.68a15.34,15.34,0,0,1-7.32,1.88,12,12,0,0,1-6-1.35l-55.09-32c-1.75-1-2.57-2.43-2.43-3.92S122,329.19,124,328Z" transform="translate(24.1)"/><path d="M178.4,367.82l-55.09-32c-3.32-1.92-2.9-5.26.93-7.48l48.34-18.59c3.83-2.21,9.63-2.45,12.95-.54l37,21.69c3.32,1.92,2.9,5.26-.93,7.47l-30.28,28.9C187.51,369.49,181.71,369.73,178.4,367.82Z" transform="translate(24.1)"/></g><path class="cls-20" d="M178.4,367.74l-55.09-32a3.85,3.85,0,0,1-2.24-3.19V328.4c0-1.45,1.1,1.07,3.17-.12l48.34-18.6c3.83-2.21,9.63-2.45,12.95-.54l37,21.69c1.11.64,1.91-2.07,2.2-1.21.09.29,0,4.1,0,4.4,0,1.48-1,3.06-3.17,4.29l-30.28,28.9C187.51,369.42,181.71,369.66,178.4,367.74Z" transform="translate(24.1)"/><path class="cls-21" d="M178.4,363.66l-55.09-32c-3.32-1.92-2.9-5.27.93-7.48l48.34-18.59c3.83-2.22,9.63-2.46,12.95-.54l37,21.69c3.32,1.92,2.9,5.26-.93,7.47l-30.28,28.9C187.51,365.33,181.71,365.57,178.4,363.66Z" transform="translate(24.1)"/><path class="cls-22" d="M222.55,326.75l-37-21.69c-3.32-1.92-9.12-1.68-12.95.54L148.23,315a7.56,7.56,0,0,0,.75.52l55.09,32a9.44,9.44,0,0,0,2.63,1l14.92-14.24C225.45,332,225.87,328.67,222.55,326.75Z" transform="translate(24.1)"/><path class="cls-23" d="M221.62,333.53l-30.28,28.9c-3.83,2.21-9.63,2.45-12.94.53l-55.09-32A3.94,3.94,0,0,1,121.1,328c-.18,1.36.55,2.67,2.21,3.64l55.09,32c3.31,1.91,9.11,1.67,12.94-.54l30.28-28.9c2.24-1.29,3.3-3,3.14-4.53C224.59,331,223.53,332.43,221.62,333.53Z" transform="translate(24.1)"/><path class="cls-24" d="M250.37,363.83,115.08,285.66c-6.92-4-12.53-14.7-12.53-23.93V158.27c0-9.23,5.61-13.47,12.53-9.47L250.37,227c6.91,4,12.52,14.71,12.52,23.93V354.37C262.89,363.59,257.28,367.83,250.37,363.83Z" transform="translate(24.1)"/><path class="cls-25" d="M252,356.63,118.6,279.57c-5.57-3.54-9-10.6-9-17.84V157.59a2.22,2.22,0,0,1,3.34-1.92l.39.23,133.53,77.16c6.62,3.82,9,10.61,9,17.84V354.72a2.4,2.4,0,0,1-3.59,2.08Z" transform="translate(24.1)"/><path class="cls-26" d="M246.85,233.06,113.32,155.9l-.39-.23a2.22,2.22,0,0,0-3.34,1.92V261.73c0,7.24,3.44,14.3,9,17.84L252,356.63l.29.17a2.4,2.4,0,0,0,3.59-2.08V250.9C255.86,243.67,253.47,236.88,246.85,233.06Zm7.6,121.66a1,1,0,0,1-1,1,.94.94,0,0,1-.48-.13L119.3,278.35c-5-3.19-8.31-9.73-8.31-16.62V157.59a.82.82,0,0,1,.82-.82.78.78,0,0,1,.41.12l133.92,77.39c6.87,3.95,8.31,11.22,8.31,16.62Z" transform="translate(24.1)"/><path class="cls-27" d="M253.92,225.08,118.63,146.91c-2.74-1.58-5.27-1.87-7.33-1.07-.26.1-3.76,1.95-4,2.09h0c2.14-1,4.85-.85,7.8.86L250.37,227c6.91,4,12.52,14.71,12.52,23.93V354.37c0,5.75-2.18,9.57-5.51,10.65a2.06,2.06,0,0,0,1.1-.37c.16-.09,3.95-2.23,4.1-2.34,2.38-1.67,3.86-5.09,3.86-9.83V249C266.44,239.79,260.83,229.08,253.92,225.08Z" transform="translate(24.1)"/><path class="cls-28" d="M251,226.67,115.68,148.5c-2.84-1.64-5.45-1.87-7.55-1a9.28,9.28,0,0,1,6.05,1.42l135.28,78.17c6.92,4,12.53,14.71,12.53,23.93V354.52c0,5.44-2,9.12-5,10.43,3.86-.61,6.48-4.58,6.48-10.88V250.6C263.49,241.38,257.88,230.66,251,226.67Z" transform="translate(24.1)"/><polygon class="cls-29" points="269.69 231.75 162.05 174.26 139.45 192.07 139.45 287.55 244.28 347.81 244.28 347.82 244.29 347.82 244.3 347.82 244.3 347.81 269.69 332.85 269.69 231.75"/><polygon class="cls-30" points="244.13 278.34 244.13 348.04 248.9 345.32 248.9 275.48 244.13 278.34"/><polygon class="cls-31" points="244.15 278.34 244.15 348.04 139.43 287.67 139.43 217.84 244.15 278.34"/><polygon class="cls-32" points="139.43 217.84 244.15 278.34 248.9 275.48 144.14 215.02 139.43 217.84"/><polygon class="cls-33" points="242.88 264.43 242.88 279.88 250.06 275.74 250.06 260.15 242.88 264.43"/><polygon class="cls-34" points="242.9 264.43 242.9 279.88 138.44 219.51 138.44 203.92 242.9 264.43"/><polygon class="cls-35" points="138.44 203.92 242.9 264.43 250.06 260.15 145.56 199.69 138.44 203.92"/><polygon class="cls-36" points="162.66 233.64 155.27 229.37 168.61 221.56 176 225.83 162.66 233.64"/><polygon class="cls-37" points="179.42 243.28 172.03 239.02 185.35 231.21 192.74 235.47 179.42 243.28"/><polygon class="cls-38" points="196.18 252.93 188.79 248.66 202.09 240.85 209.48 245.12 196.18 252.93"/><polygon class="cls-39" points="212.94 262.57 205.55 258.31 218.83 250.49 226.22 254.76 212.94 262.57"/><polygon class="cls-40" points="229.7 272.22 222.31 267.95 235.56 260.13 242.95 264.4 229.7 272.22"/><polygon class="cls-41" points="242.88 234.28 242.88 245.6 250.06 240.2 250.06 228.75 242.88 234.28"/><polygon class="cls-42" points="242.9 234.28 242.9 245.6 138.44 204 138.44 192.54 242.9 234.28"/><polygon class="cls-43" points="138.44 192.54 242.9 234.28 250.06 228.75 145.56 187.06 138.44 192.54"/><polygon class="cls-44" points="170.23 205.47 162.84 202.5 168.54 216.01 175.93 218.99 170.23 205.47"/><polygon class="cls-45" points="186.95 212.09 179.56 209.12 185.26 222.65 192.65 225.62 186.95 212.09"/><polygon class="cls-46" points="203.68 218.71 196.29 215.74 201.99 229.29 209.38 232.26 203.68 218.71"/><polygon class="cls-47" points="220.4 225.33 213.01 222.36 218.71 235.93 226.1 238.9 220.4 225.33"/><polygon class="cls-48" points="237.13 231.95 229.74 228.98 235.44 242.56 242.83 245.53 237.13 231.95"/><polygon class="cls-49" points="138.35 193.86 137.81 194.11 138.52 219.38 154.78 229.21 155.34 228.89 155.34 217.45 146.71 198.52 138.35 193.86"/><polygon class="cls-50" points="137.79 194.07 137.79 219.45 154.78 229.21 154.78 217.67 146.15 198.74 137.79 194.07"/><path class="cls-51" d="M118.88,202.79c0,.77-.62,1-1.39.59a2.88,2.88,0,0,1-1.38-2.18c0-.77.62-1,1.38-.59A2.86,2.86,0,0,1,118.88,202.79Z" transform="translate(24.1)"/><path class="cls-51" d="M118.88,216.56c0,.77-.62,1-1.39.59a2.88,2.88,0,0,1-1.38-2.18c0-.77.62-1,1.38-.59A2.86,2.86,0,0,1,118.88,216.56Z" transform="translate(24.1)"/><path class="cls-51" d="M128.7,221.83c0,.77-.62,1-1.38.59a2.86,2.86,0,0,1-1.39-2.18c0-.77.62-1,1.39-.59A2.88,2.88,0,0,1,128.7,221.83Z" transform="translate(24.1)"/><path class="cls-52" d="M118.53,202.91c0,.76-.62,1-1.39.58a2.86,2.86,0,0,1-1.38-2.18c0-.76.62-1,1.38-.58A2.86,2.86,0,0,1,118.53,202.91Z" transform="translate(24.1)"/><path class="cls-53" d="M118.53,216.68c0,.76-.62,1-1.39.58a2.86,2.86,0,0,1-1.38-2.18c0-.76.62-1,1.38-.58A2.86,2.86,0,0,1,118.53,216.68Z" transform="translate(24.1)"/><path class="cls-54" d="M128.35,222c0,.76-.62,1-1.38.58a2.85,2.85,0,0,1-1.39-2.18c0-.76.62-1,1.39-.58A2.88,2.88,0,0,1,128.35,222Z" transform="translate(24.1)"/><polygon class="cls-55" points="153.48 212.81 242.91 263.33 250.06 260.15 243.54 264.5 242.88 279.88 242.36 264.59 153.48 212.81"/><polygon class="cls-56" points="140.46 193.51 242.61 233.47 249.41 229.13 243.36 234.79 242.9 245.01 242.03 234.5 140.46 193.51"/><path class="cls-57" d="M120.15,241.93a3.09,3.09,0,0,1-.54-.77,1.93,1.93,0,0,1-.19-.72s0-.07,0-.08a.1.1,0,0,1,.09,0l.12.07a.27.27,0,0,1,.14.22,1.84,1.84,0,0,0,.33.77,2.44,2.44,0,0,0,.84.73,1.22,1.22,0,0,0,.85.26c.19,0,.28-.22.28-.51a1,1,0,0,0-.13-.51,2.45,2.45,0,0,0-.4-.53c-.17-.19-.43-.44-.79-.78a7.75,7.75,0,0,1-.72-.76,2.45,2.45,0,0,1-.4-.63,1.92,1.92,0,0,1-.12-.69.82.82,0,0,1,.16-.55.6.6,0,0,1,.49-.17,1.85,1.85,0,0,1,.75.27,3.11,3.11,0,0,1,.76.63,2.76,2.76,0,0,1,.49.75,1.65,1.65,0,0,1,.17.66s0,.07,0,.08,0,0-.09,0l-.12-.07a.32.32,0,0,1-.09-.08.29.29,0,0,1,0-.14,1.54,1.54,0,0,0-.32-.76,2.34,2.34,0,0,0-.72-.64,1.21,1.21,0,0,0-.75-.22c-.18,0-.27.19-.27.47a1.2,1.2,0,0,0,.12.52,2.94,2.94,0,0,0,.38.52c.16.18.41.42.73.73a9,9,0,0,1,.77.79,2.55,2.55,0,0,1,.42.65,1.58,1.58,0,0,1,.15.69c0,.42-.14.66-.41.74a1.53,1.53,0,0,1-1.11-.29A3.31,3.31,0,0,1,120.15,241.93Z" transform="translate(24.1)"/><path class="cls-57" d="M123.76,243.68a3.67,3.67,0,0,1-.42-1.61c0-.13,0-.33,0-.62s0-.49,0-.62a1.36,1.36,0,0,1,.42-1.12c.26-.19.66-.14,1.18.17a3.13,3.13,0,0,1,.9.74,3.39,3.39,0,0,1,.53.87,2.75,2.75,0,0,1,.19.82h0s0,.06,0,.07,0,0-.09,0l-.12-.07a.26.26,0,0,1-.13-.22,2.61,2.61,0,0,0-.42-1.07,2.52,2.52,0,0,0-.82-.72c-.38-.22-.67-.26-.88-.14s-.32.44-.34.94c0,.12,0,.31,0,.57s0,.46,0,.59a2.84,2.84,0,0,0,.34,1.33,2.32,2.32,0,0,0,.88.88,1.26,1.26,0,0,0,.82.23c.2-.05.34-.25.42-.59,0-.09.06-.12.13-.07l.12.07a.28.28,0,0,1,.1.09.27.27,0,0,1,0,.12,1.12,1.12,0,0,1-.19.59.66.66,0,0,1-.53.27,1.82,1.82,0,0,1-.9-.29A3,3,0,0,1,123.76,243.68Z" transform="translate(24.1)"/><path class="cls-57" d="M127.63,246.32a.31.31,0,0,1,0-.13v-4.55a.13.13,0,0,1,0-.1.1.1,0,0,1,.1,0l2.36,1.36a.27.27,0,0,1,.11.1.32.32,0,0,1,0,.14v.1c0,.05,0,.08,0,.09a.12.12,0,0,1-.1,0L128,242.12v1.77l2,1.14a.32.32,0,0,1,.1.1.23.23,0,0,1,0,.14v.1s0,.08,0,.09-.06,0-.1,0l-2-1.15v1.84l2.16,1.25a.32.32,0,0,1,.1.1.23.23,0,0,1,0,.14v.1c0,.05,0,.08,0,.09s-.06,0-.1,0l-2.41-1.39A.47.47,0,0,1,127.63,246.32Z" transform="translate(24.1)"/><path class="cls-57" d="M131.37,248.48a.37.37,0,0,1,0-.14v-4.55a.13.13,0,0,1,0-.09s.06,0,.1,0l.12.08a.28.28,0,0,1,.13.15l2.23,5.21v-3.84a.13.13,0,0,1,0-.1.1.1,0,0,1,.1,0l.11.06a.25.25,0,0,1,.13.24v4.54q0,.08,0,.09a.08.08,0,0,1-.1,0l-.13-.07a.42.42,0,0,1-.13-.16l-2.23-5.19v3.83q0,.08,0,.09a.14.14,0,0,1-.11,0l-.1-.07A.22.22,0,0,1,131.37,248.48Z" transform="translate(24.1)"/><path class="cls-57" d="M135.66,251a.28.28,0,0,1,0-.13v-4.55a.11.11,0,0,1,0-.09s.06,0,.1,0l2.36,1.36a.32.32,0,0,1,.1.1.33.33,0,0,1,0,.14v.11a.09.09,0,0,1,0,.08s-.06,0-.1,0L136,246.75v1.77l2,1.14a.36.36,0,0,1,.11.1.35.35,0,0,1,0,.14V250a.1.1,0,0,1,0,.09.14.14,0,0,1-.1,0l-2-1.14v1.84l2.16,1.24a.36.36,0,0,1,.1.11.28.28,0,0,1,0,.13v.11a.1.1,0,0,1,0,.09s0,0-.09,0l-2.41-1.39A.24.24,0,0,1,135.66,251Z" transform="translate(24.1)"/><path class="cls-57" d="M153.36,261.36a.31.31,0,0,1,0-.13v-4.29l-1.2-.69a.47.47,0,0,1-.1-.1.33.33,0,0,1,0-.13v-.11a.1.1,0,0,1,0-.09s.06,0,.1,0l2.77,1.6a.24.24,0,0,1,.1.1.23.23,0,0,1,0,.14v.1c0,.05,0,.08,0,.09a.12.12,0,0,1-.1,0l-1.19-.69v4.29a.13.13,0,0,1,0,.09.13.13,0,0,1-.1,0l-.11-.06A.47.47,0,0,1,153.36,261.36Z" transform="translate(24.1)"/><path class="cls-57" d="M155.08,262.35a.28.28,0,0,1,0-.12l0-.06,1.53-3.63c0-.07.09-.08.17,0l.21.12a.4.4,0,0,1,.17.24l1.54,5.4v.08s0,.06,0,.07a.06.06,0,0,1-.08,0l-.12-.07a.2.2,0,0,1-.09-.09l-.05-.09-.37-1.33-2.14-1.24-.38.9a.11.11,0,0,1,0,0,.09.09,0,0,1-.08,0l-.12-.07A.16.16,0,0,1,155.08,262.35Zm.86-1.09,1.85,1.07-.92-3.27Z" transform="translate(24.1)"/><path class="cls-57" d="M159.59,265a.25.25,0,0,1,0-.14v-4.55a.1.1,0,0,1,0-.09.12.12,0,0,1,.1,0l.11.07a.24.24,0,0,1,.1.1.29.29,0,0,1,0,.14v1.8l1.84-.8.1,0a.31.31,0,0,1,.13,0l.09.05a.2.2,0,0,1,.09.09.34.34,0,0,1,0,.12s0,.06,0,.07l-2.06.92,2.18,3.55a.21.21,0,0,1,0,.12.08.08,0,0,1,0,.08.08.08,0,0,1-.08,0l-.1-.06a.38.38,0,0,1-.14-.11l-.09-.12-2-3.19v2s0,.08,0,.09a.1.1,0,0,1-.09,0l-.11-.07A.22.22,0,0,1,159.59,265Z" transform="translate(24.1)"/><path class="cls-57" d="M163.22,267.05a.28.28,0,0,1,0-.13v-4.55a.11.11,0,0,1,0-.09s.06,0,.1,0l2.36,1.36a.32.32,0,0,1,.1.1.33.33,0,0,1,0,.14V264a.09.09,0,0,1,0,.08s-.06,0-.1,0l-2.11-1.22v1.77l2,1.14a.36.36,0,0,1,.11.1.32.32,0,0,1,0,.14v.11s0,.07,0,.08-.06,0-.1,0l-2-1.14v1.84l2.16,1.24a.47.47,0,0,1,.1.1.35.35,0,0,1,0,.14v.11a.12.12,0,0,1,0,.09.13.13,0,0,1-.1,0l-2.41-1.39A.24.24,0,0,1,163.22,267.05Z" transform="translate(24.1)"/><path class="cls-57" d="M191.6,283.25a.31.31,0,0,1,0-.13v-4.55a.13.13,0,0,1,0-.1.12.12,0,0,1,.1,0l1.29.75a3.55,3.55,0,0,1,1,.79,2.51,2.51,0,0,1,.53.92,4.28,4.28,0,0,1,.16,1.13c0,.15,0,.33,0,.56s0,.41,0,.55a2.61,2.61,0,0,1-.16,1,.54.54,0,0,1-.52.31,2.16,2.16,0,0,1-1-.36l-1.32-.76Zm1.39.42a1.7,1.7,0,0,0,.76.29.38.38,0,0,0,.4-.24,1.87,1.87,0,0,0,.14-.8c0-.13,0-.31,0-.51s0-.38,0-.52a2.68,2.68,0,0,0-.32-1.32,2.57,2.57,0,0,0-1-.94l-1-.59v4Z" transform="translate(24.1)"/><path class="cls-57" d="M195.36,285.42a.27.27,0,0,1,0-.12v-.07l1.53-3.62c0-.08.09-.09.17,0l.21.12a.4.4,0,0,1,.17.24l1.54,5.39v.08a.08.08,0,0,1,0,.08.08.08,0,0,1-.08,0l-.12-.07a.24.24,0,0,1-.09-.08l0-.1-.37-1.33-2.14-1.23-.38.89,0,0a.1.1,0,0,1-.09,0l-.12-.07A.26.26,0,0,1,195.36,285.42Zm.86-1.1,1.85,1.07-.92-3.27Z" transform="translate(24.1)"/><path class="cls-57" d="M200.34,288.29a.28.28,0,0,1,0-.13v-4.29l-1.19-.69a.32.32,0,0,1-.1-.1.33.33,0,0,1,0-.13v-.11a.13.13,0,0,1,0-.09s.06,0,.1,0l2.77,1.6a.32.32,0,0,1,.1.1.23.23,0,0,1,0,.14v.1c0,.05,0,.08,0,.09s-.06,0-.1,0l-1.19-.69v4.29a.1.1,0,0,1,0,.09.1.1,0,0,1-.1,0l-.11-.06A.24.24,0,0,1,200.34,288.29Z" transform="translate(24.1)"/><path class="cls-57" d="M202.94,289.79a.2.2,0,0,1,0-.13v-4.55c0-.05,0-.08,0-.09s.05,0,.09,0l2.37,1.36.1.1a.32.32,0,0,1,0,.14v.1s0,.08,0,.09-.06,0-.1,0l-2.12-1.22v1.77l2,1.14a.36.36,0,0,1,.11.1.32.32,0,0,1,0,.14v.11s0,.07,0,.08-.06,0-.1,0l-2-1.15v1.85l2.16,1.24a.36.36,0,0,1,.11.1.35.35,0,0,1,0,.14v.11a.1.1,0,0,1,0,.09.14.14,0,0,1-.1,0L203,289.89A.22.22,0,0,1,202.94,289.79Z" transform="translate(24.1)"/><path class="cls-58" d="M216.05,308.16a.42.42,0,0,0,.21-.79l-28.69-16.49V272.46l28.27,16.25a.42.42,0,0,0,.21.06.42.42,0,0,0,.37-.22.41.41,0,0,0-.16-.57l-28.73-16.53a.42.42,0,0,0-.38-.24h0l-67.95-39.07a.42.42,0,0,0-.58.16.44.44,0,0,0,.16.58l29.18,16.78v18.41l-28.76-16.53a.42.42,0,0,0-.58.15.43.43,0,0,0,.16.58l37.19,21.38v14.52l-36.77-21.13a.42.42,0,0,0-.58.15.43.43,0,0,0,.16.58l97.09,55.83a.54.54,0,0,0,.21.05.42.42,0,0,0,.21-.79l-59.65-34.3V274.23l-.16-.27,59.39,34.15A.54.54,0,0,0,216.05,308.16Zm-29.32-17.77-37.95-21.82V250.15L186.73,272Z" transform="translate(24.1)"/><path class="cls-59" d="M216.26,337.53l-97.09-55.82a.42.42,0,0,0-.58.16.44.44,0,0,0,.16.58l97.09,55.82a.42.42,0,0,0,.21.06.42.42,0,0,0,.37-.22A.42.42,0,0,0,216.26,337.53Z" transform="translate(24.1)"/><path class="cls-60" d="M232.13,258.79c2.58,6.26-1.21,13.74-8.45,16.71s-15.2.32-17.77-5.93,1.22-13.74,8.46-16.72S229.57,252.54,232.13,258.79Z" transform="translate(24.1)"/><rect class="cls-61" x="243.63" y="279.26" width="0.76" height="64.86"/></g></g></g></g></g></svg>